<svg width="77" height="76" viewBox="0 0 77 76" fill="none" xmlns="http://www.w3.org/2000/svg">
<path fill-rule="evenodd" clip-rule="evenodd" d="M0.833252 0H76.8333V76H0.833252V0Z" fill="white"/>
<ellipse opacity="0.2" cx="38.8333" cy="62.5451" rx="16" ry="4.18182" fill="#EE4D2D"/>
<ellipse opacity="0.2" cx="38.8335" cy="61.4545" rx="12.7273" ry="3.45455" fill="#EE4D2D"/>
<path fill-rule="evenodd" clip-rule="evenodd" d="M53.6825 16.1377C61.8835 24.3213 61.8835 37.5896 53.6825 45.7732L38.8333 60.5909L23.984 45.7732C15.783 37.5896 15.783 24.3213 23.984 16.1377C32.185 7.9541 45.4815 7.9541 53.6825 16.1377ZM45.3669 37.4752C48.9754 33.8745 48.9754 28.0364 45.3669 24.4356C41.7585 20.8349 35.908 20.8349 32.2996 24.4356C28.6911 28.0364 28.6911 33.8745 32.2996 37.4752C35.908 41.076 41.7585 41.076 45.3669 37.4752Z" fill="#EE4D2D"/>
</svg>
