<svg width="77" height="76" viewBox="0 0 77 76" fill="none" xmlns="http://www.w3.org/2000/svg">
<path fill-rule="evenodd" clip-rule="evenodd" d="M0.666626 0H76.6666V76H0.666626V0Z" fill="white"/>
<path fill-rule="evenodd" clip-rule="evenodd" d="M50.8481 35.4281C55.9036 35.4281 59.954 31.3125 59.954 26.214C59.954 21.1156 55.9036 17 50.8481 17C45.7927 17 41.7118 21.1156 41.7118 26.214C41.7118 31.3125 45.7927 35.4281 50.8481 35.4281ZM26.4849 35.4281C31.5404 35.4281 35.5908 31.3125 35.5908 26.214C35.5908 21.1156 31.5404 17 26.4849 17C21.4295 17 17.3486 21.1156 17.3486 26.214C17.3486 31.3125 21.4295 35.4281 26.4849 35.4281ZM26.4848 41.5703C19.3889 41.5703 5.16663 45.1638 5.16663 52.32V59.9984H47.8029V52.32C47.8029 45.1638 33.5807 41.5703 26.4848 41.5703ZM50.8485 41.5703C49.9653 41.5703 48.9603 41.6317 47.8944 41.7239C51.4271 44.3038 53.8939 47.7744 53.8939 52.32V59.9984H72.1666V52.32C72.1666 45.1638 57.9444 41.5703 50.8485 41.5703Z" fill="#FFB014"/>
</svg>
