<svg width="77" height="76" viewBox="0 0 77 76" fill="none" xmlns="http://www.w3.org/2000/svg">
<path fill-rule="evenodd" clip-rule="evenodd" d="M0.5 0H76.5V76H0.5V0Z" fill="white"/>
<path fill-rule="evenodd" clip-rule="evenodd" d="M39.4188 10.4753C38.8425 10.1772 38.1575 10.1772 37.5812 10.4753L11.6623 23.8816C10.3341 24.5686 9.5 25.9391 9.5 27.4344V58C9.5 60.2091 11.2909 62 13.5 62H22.5C24.7091 62 26.5 60.2091 26.5 58V44C26.5 41.7909 28.2909 40 30.5 40H46.5C48.7091 40 50.5 41.7909 50.5 44V58C50.5 60.2091 52.2909 62 54.5 62H63.5C65.7091 62 67.5 60.2091 67.5 58V27.4344C67.5 25.9391 66.6659 24.5686 65.3377 23.8816L39.4188 10.4753Z" fill="#3274F7"/>
<rect x="30.5" y="29" width="16" height="5" rx="2.5" fill="white"/>
<rect x="29.5" y="45" width="18" height="5" rx="2.5" fill="#3274F7"/>
<rect x="29.5" y="53" width="18" height="5" rx="2.5" fill="#3274F7"/>
</svg>
